<svg width="50" height="51" viewBox="0 0 50 51" fill="none" xmlns="http://www.w3.org/2000/svg">
<g clip-path="url(#clip0_2009_188)">
<path fill-rule="evenodd" clip-rule="evenodd" d="M0 0.867249H50V50.8672H0V0.867249Z" fill="white"/>
<path fill-rule="evenodd" clip-rule="evenodd" d="M2.2007 46.9615H2.05777C2.05777 46.8902 2.02197 46.7828 2.02197 46.7468C2.02197 46.7112 2.02197 46.6399 1.91458 46.6399H1.6998V46.9615H1.59241V46.2103H1.91458C2.05777 46.2103 2.1649 46.2464 2.1649 46.389C2.1649 46.4964 2.1291 46.5325 2.09357 46.5678C2.12936 46.6038 2.1649 46.6396 2.1649 46.7112V46.8541C2.1649 46.8902 2.1649 46.8902 2.2007 46.8902V46.9615ZM2.05777 46.4251C2.05777 46.3177 1.98618 46.3177 1.95038 46.3177H1.6998V46.5325H1.91458C1.98618 46.5325 2.05777 46.4964 2.05777 46.4251V46.4251ZM2.66605 46.568C2.66605 46.139 2.30834 45.7808 1.84299 45.7808C1.41369 45.7808 1.05573 46.139 1.05573 46.568C1.05573 47.0331 1.41369 47.3913 1.84299 47.3913C2.30809 47.3911 2.66605 47.0331 2.66605 46.568ZM2.55866 46.568C2.55866 46.9618 2.23675 47.2479 1.84299 47.2479C1.44923 47.2479 1.16311 46.9615 1.16311 46.568C1.16311 46.2103 1.44949 45.8882 1.84299 45.8882C2.23649 45.8882 2.55866 46.2103 2.55866 46.568ZM46.6439 32.1117C46.6439 33.1853 45.964 33.6857 44.7472 33.6857H42.4217V32.612H44.7472C44.962 32.612 45.141 32.5765 45.2128 32.5052C45.2842 32.4333 45.3558 32.3259 45.3558 32.183C45.3558 32.0396 45.2844 31.8966 45.2128 31.8253C45.141 31.7534 44.9981 31.7179 44.7833 31.7179C43.6744 31.6819 42.2786 31.7534 42.2786 30.1792C42.2786 29.4632 42.7437 28.676 43.996 28.676H46.3933V29.7496H44.1747C43.9605 29.7496 43.817 29.7496 43.7096 29.821C43.6023 29.9283 43.5309 30.0357 43.5309 30.2147C43.5309 30.3937 43.6383 30.5011 43.7812 30.5729C43.9247 30.6085 44.0679 30.6443 44.2469 30.6443H44.8907C45.5705 30.6443 46.0001 30.7872 46.2865 31.038C46.5007 31.2883 46.6439 31.6108 46.6439 32.1117V32.1117ZM41.5984 31.038C41.3121 30.7872 40.8825 30.6443 40.2026 30.6443H39.5588C39.3801 30.6443 39.2366 30.6082 39.0937 30.5729C38.9503 30.5011 38.8434 30.3937 38.8434 30.2147C38.8434 30.0357 38.8789 29.9283 39.0221 29.821C39.1295 29.7496 39.2724 29.7496 39.4872 29.7496H41.7058V28.676H39.3085C38.0201 28.676 37.5905 29.4632 37.5905 30.1792C37.5905 31.7532 38.9863 31.6819 40.0958 31.7179C40.31 31.7179 40.4535 31.7534 40.5248 31.8253C40.5961 31.8966 40.6682 32.0396 40.6682 32.183C40.6682 32.3259 40.5964 32.4333 40.5248 32.5052C40.4174 32.5765 40.2745 32.612 40.0597 32.612H37.7337V33.6857H40.0597C41.276 33.6857 41.9561 33.185 41.9561 32.1117C41.9561 31.6108 41.8132 31.2883 41.5984 31.038V31.038ZM37.018 32.6484H34.1917V31.6463H36.9467V30.6448H34.1917V29.7141H37.018V28.6765H33.0106V33.6859H37.018V32.6484ZM31.7222 28.9271C31.3285 28.7123 30.8634 28.6762 30.2551 28.6762H27.5V33.6857H28.7163V31.8608H30.0048C30.4338 31.8608 30.6846 31.8969 30.8636 32.0756C31.0784 32.3259 31.0784 32.7555 31.0784 33.0777V33.6857H32.2589V32.7194C32.2589 32.2543 32.2234 32.0396 32.0802 31.7892C31.9728 31.6458 31.7585 31.4671 31.4722 31.3597C31.7938 31.2528 32.331 30.8233 32.331 30.0357C32.3308 29.4635 32.116 29.1413 31.7222 28.9271V28.9271ZM24.9235 28.6762H21.0945L19.5558 30.3224L18.0887 28.6762H13.2579V33.6857H18.0173L19.5561 32.0396L21.0232 33.6857H23.3492V32.0043H24.8521C25.8897 32.0043 26.9278 31.7179 26.9278 30.3224C26.9275 28.9626 25.8539 28.6762 24.9235 28.6762ZM30.756 30.7519C30.5772 30.8233 30.3983 30.8233 30.1835 30.8233L28.7163 30.8593V29.7138H30.1835C30.3983 29.7138 30.613 29.7138 30.756 29.8212C30.8994 29.8931 31.0063 30.036 31.0063 30.2508C31.0063 30.4655 30.8994 30.6445 30.756 30.7519V30.7519ZM24.9235 31.0022H23.3489V29.7138H24.9235C25.353 29.7138 25.6391 29.8931 25.6391 30.3224C25.6391 30.7519 25.3528 31.0022 24.9235 31.0022ZM20.3073 31.181L22.1679 29.2132V33.2566L20.3073 31.181ZM17.4088 32.6484H14.4387V31.6463H17.0866V30.6448H14.4387V29.7141H17.4446L18.7685 31.1812L17.4088 32.6484V32.6484ZM43.3159 25.0621H41.5984L39.344 21.3047V25.0621H36.9112L36.4455 23.9527H33.9408L33.4757 25.0621H32.0799C31.5074 25.0621 30.756 24.9189 30.3269 24.4893C29.9332 24.06 29.7184 23.4876 29.7184 22.5929C29.7184 21.8414 29.8258 21.1616 30.3622 20.6249C30.7199 20.2311 31.3642 20.0524 32.187 20.0524H33.332V21.126H32.187C31.758 21.126 31.5072 21.1976 31.2569 21.4124C31.0421 21.6272 30.9347 22.0207 30.9347 22.5574C30.9347 23.0941 31.0421 23.4878 31.2569 23.7384C31.4356 23.9171 31.758 23.9887 32.0797 23.9887H32.6166L34.3341 20.0526H36.1234L38.1272 24.776V20.0524H39.9881L42.0993 23.5234V20.0524H43.3156V25.0621H43.3159V25.0621ZM29.1101 20.0524H27.8938V25.0621H29.1101V20.0524V20.0524ZM26.5693 20.2672C26.1756 20.0524 25.7465 20.0524 25.1382 20.0524H22.3827V25.0621H23.5635V23.237H24.8516C25.2812 23.237 25.5675 23.2728 25.7463 23.4518C25.961 23.7023 25.925 24.1319 25.925 24.418V25.0621H27.1413V24.06C27.1413 23.6307 27.1058 23.416 26.927 23.1654C26.8196 23.0222 26.6049 22.8432 26.3545 22.7361C26.6762 22.5929 27.2134 22.1994 27.2134 21.4121C27.2137 20.8396 26.9628 20.5175 26.5693 20.2672ZM21.5238 24.0245H18.7327V23.0225H21.488V21.9849H18.7327V21.0902H21.5238V20.0526H17.5162V25.0623H21.5238V24.0245ZM16.6215 20.0524H14.6535L13.1863 23.4518L11.6118 20.0524H9.67958V24.7757L7.63996 20.0524H5.85091L3.70389 25.0621H4.99205L5.45714 23.9527H7.96186L8.42696 25.0621H10.8603V21.126L12.6136 25.0621H13.6512L15.4047 21.126V25.0621H16.6213V20.0524H16.6215ZM36.0165 22.8793L35.1932 20.9112L34.3704 22.8793H36.0165ZM25.6391 22.0923C25.4604 22.1997 25.2814 22.1997 25.0309 22.1997H23.5635V21.0905H25.0306C25.2454 21.0905 25.4954 21.0905 25.6389 21.1621C25.7818 21.2695 25.8537 21.4127 25.8537 21.6272C25.8537 21.8417 25.7821 22.0204 25.6391 22.0923V22.0923ZM5.88644 22.8793L6.7095 20.9112L7.53257 22.8793H5.88644V22.8793ZM46.3578 4.34341H3.66784V22.3784L5.13498 19.0506H8.24798L8.67754 19.8737V19.0506H12.3275L13.1505 20.8396L13.9378 19.0506H25.5675C26.104 19.0506 26.5691 19.158 26.9273 19.4441V19.0506H30.1119V19.4441C30.6483 19.1577 31.3282 19.0506 32.1157 19.0506H36.7317L37.1612 19.8737V19.0506H40.5606L41.0617 19.8737V19.0506H44.3893V26.0641H41.0259L40.3821 24.9908V26.0641H36.1952L35.7301 24.9192H34.692L34.2269 26.0641H32.0444C31.1855 26.0641 30.5412 25.8494 30.1121 25.6348V26.0641H24.9235V24.4538C24.9235 24.239 24.8877 24.2032 24.7445 24.2032H24.5658V26.0639H14.5461V25.1692L14.1884 26.0639H12.0772L11.7195 25.205V26.0639H7.67575L7.24645 24.9189H6.20861L5.74352 26.0639H3.66784V47.2121H46.3578V34.3656C45.8927 34.5803 45.2484 34.6877 44.6043 34.6877H41.491V34.2582C41.1333 34.5448 40.489 34.6877 39.881 34.6877H30.0761V33.0777C30.0761 32.8629 30.0406 32.8629 29.8613 32.8629H29.6826V34.6877H26.4619V32.7913C25.9255 33.0416 25.317 33.0416 24.7803 33.0416H24.4223V34.6877H20.4862L19.5561 33.6141L18.5185 34.6877H12.1843V27.6745H18.6253L19.5558 28.7476L20.5578 27.6745H24.8877C25.3883 27.6745 26.2116 27.7458 26.5693 28.1035V27.6745H30.4338C30.8276 27.6745 31.5793 27.7458 32.0799 28.1035V27.6745H37.9127V28.1038C38.2348 27.8174 38.8434 27.6747 39.3798 27.6747H42.636V28.1038C42.9942 27.8534 43.4949 27.6747 44.1392 27.6747H46.3578V4.34341V4.34341Z" fill="#0077A6"/>
</g>
<defs>
<clipPath id="clip0_2009_188">
<rect width="50" height="50" fill="white" transform="translate(0 0.867249)"/>
</clipPath>
</defs>
</svg>
