<svg width="140" height="31" viewBox="0 0 140 31" fill="none" xmlns="http://www.w3.org/2000/svg">
<path d="M20.2434 1.5365C19.5342 2.45247 19.1501 3.27981 19.2388 3.60483C19.357 4.07759 19.2092 4.13669 17.85 4.0185L16.3431 3.87076L13.3883 7.88923C11.7632 10.0758 10.4336 11.8782 10.3745 11.8782C10.3449 11.8782 9.13348 11.1395 7.6561 10.253C6.17872 9.36661 4.70134 8.62792 4.37631 8.62792C3.75581 8.62792 3.54898 9.33707 4.08084 9.66209C4.37631 9.83938 4.4945 11.2872 4.19903 11.2872C4.11039 11.2872 3.78536 11.1395 3.43079 10.9622C3.10577 10.7849 2.51481 10.7258 2.10115 10.8144C1.5102 10.9917 1.39201 11.169 1.48065 11.9373C1.56929 12.735 1.86477 13.0305 3.9922 14.3011C6.94696 16.0739 8.06977 16.3103 9.69488 15.4534C10.5813 14.9807 11.2018 14.8625 12.0291 15.0102C12.7383 15.1284 13.2406 15.0693 13.3588 14.8625C13.7134 14.3011 14.9544 14.5079 16.4908 15.4239C17.3182 15.8966 18.0569 16.3103 18.116 16.3103C18.2637 16.3103 25.6801 6.26411 25.8574 5.79135C26.0052 5.37769 25.9461 5.34814 24.2323 4.90492L23.2572 4.639L24.646 2.7775C25.4438 1.68424 25.9165 0.797807 25.7688 0.650069C25.621 0.502331 24.5869 0.295497 23.4345 0.206855L21.3662 2.13236e-05L20.2434 1.5365Z" fill="#5C0FFF"/>
<path d="M36.5833 15.3942V22.8107H38.0606H39.538V19.8559V16.9011H40.5131C41.3995 16.9011 41.5768 17.108 43.2315 19.8559L44.9748 22.8107H46.7181H48.4318L47.8704 21.9833C46.9249 20.6537 44.502 16.5761 44.6202 16.4875C44.6497 16.4579 45.0339 16.2806 45.4475 16.0738C47.2795 15.1283 48.0182 12.3804 47.0136 10.4007C46.1567 8.71646 44.7679 8.21415 40.3653 8.09596L36.5833 7.97777V15.3942ZM43.2906 10.7257C44.2656 11.0803 44.5611 11.4939 44.5611 12.5281C44.5611 13.71 43.586 14.2419 41.3995 14.2419H39.538V12.5281C39.538 11.5826 39.6267 10.6961 39.7448 10.6075C40.0403 10.2825 42.3746 10.3711 43.2906 10.7257Z" fill="#5C0FFF"/>
<path d="M94.7331 10.6075C94.6445 11.9667 94.6149 12.0258 93.6989 12.1144C92.783 12.2031 92.7239 12.2917 92.7239 13.385C92.7239 14.5078 92.7534 14.5373 93.758 14.5373H94.7922V18.0535C94.7922 21.5106 94.8218 21.5992 95.5604 22.1902C96.1514 22.6629 96.7719 22.8107 98.072 22.8107H99.8153V21.6288C99.8153 20.4469 99.8153 20.4469 98.6629 20.4469C97.2742 20.4469 97.156 20.1514 97.156 16.8125V14.5373H98.4857H99.8153V13.385C99.8153 12.2031 99.8153 12.2031 98.5743 12.1144L97.3038 12.0258L97.2151 10.6075L97.1265 9.21877H95.9741H94.8218L94.7331 10.6075Z" fill="#5C0FFF"/>
<path d="M134.977 10.6961C134.977 12.144 134.947 12.1735 134.09 12.1735C133.263 12.1735 133.204 12.2326 133.204 13.3554C133.204 14.4782 133.263 14.5373 134.09 14.5373H134.977V17.6398C134.977 19.3241 135.124 21.0378 135.302 21.4219C135.745 22.3675 136.75 22.8107 138.522 22.8107H140V21.6583C140 20.506 139.97 20.4764 138.907 20.3878L137.784 20.2991L137.695 17.4035L137.606 14.5373H138.818H140V13.3554V12.1735H138.818H137.636V10.6961V9.21877H136.306H134.977V10.6961Z" fill="#5C0FFF"/>
<path d="M51.771 12.5874C49.1708 14.0352 48.2548 17.3741 49.6731 20.1516C51.0914 23.0177 55.169 23.7268 57.5032 21.5403C58.6851 20.447 59.1284 19.2356 59.1284 17.2559C59.0988 13.9761 57.2078 12.1442 53.8984 12.2033C53.0711 12.2328 52.096 12.3805 51.771 12.5874ZM55.7304 15.1285C56.4395 15.8081 56.8236 17.4036 56.5282 18.4378C55.7304 21.0675 52.4211 21.1266 51.771 18.5265C51.5051 17.4627 51.8301 15.749 52.4211 15.0989C53.1006 14.3307 54.903 14.3602 55.7304 15.1285Z" fill="#5C0FFF"/>
<path d="M62.9988 12.7352C61.1964 13.8284 60.31 16.34 60.7827 18.9402C61.2555 21.3926 62.9988 22.7814 65.6877 22.7814C67.431 22.8109 68.8197 22.0722 69.6766 20.6835C70.5335 19.2357 70.4448 18.9697 69.0561 18.9697C68.1106 18.9697 67.6969 19.147 67.2537 19.7084C66.2786 20.9494 64.358 20.6244 63.5307 19.0584C62.792 17.7287 63.3829 15.1581 64.5057 14.7149C65.8058 14.2421 67.6082 14.8331 67.6082 15.749C67.6082 15.8968 68.1992 16.015 68.9379 16.015C69.9425 16.015 70.2675 15.8968 70.2675 15.5718C70.2675 14.7149 69.3516 13.3261 68.406 12.7647C67.1355 11.9669 64.2694 11.9669 62.9988 12.7352Z" fill="#5C0FFF"/>
<path d="M71.7449 17.4921V22.8107H73.0745H74.4042V20.9492C74.4042 19.2354 74.7292 18.3785 75.3497 18.3785C75.4679 18.3785 76.2361 19.3831 77.0634 20.5946L78.5704 22.8107H80.1955C81.4069 22.8107 81.7615 22.722 81.6138 22.4266C81.4956 22.2493 80.4614 20.7719 79.3386 19.1468L77.2998 16.2511L79.3091 14.2123L81.3183 12.1735H79.7227C78.1567 12.1735 78.0681 12.2031 76.2657 14.0055L74.4042 15.8374V14.0055V12.1735H73.0745H71.7449V17.4921Z" fill="#5C0FFF"/>
<path d="M84.3029 12.5281C82.4414 13.5327 81.4958 15.2465 81.4958 17.4921C81.4958 20.7423 83.446 22.8107 86.5485 22.8107C88.6168 22.8107 90.9511 21.0969 90.9511 19.5604C90.9511 18.999 88.7055 19.2354 88.1441 19.8559C87.0213 21.0969 83.9188 20.2105 84.2142 18.7331C84.3029 18.2899 84.7461 18.2308 87.7895 18.2308H91.2466V16.9011C91.2466 14.035 89.3851 12.1735 86.5485 12.1735C85.6325 12.1735 84.6279 12.3508 84.3029 12.5281ZM88.085 15.0692C89.1191 15.9852 88.7055 16.3102 86.5485 16.3102C85.3961 16.3102 84.4211 16.192 84.3324 16.0738C84.2438 15.9261 84.362 15.542 84.6279 15.1874C85.3075 14.1828 86.9917 14.1237 88.085 15.0692Z" fill="#5C0FFF"/>
<path d="M102.859 12.7351C102.356 13.0601 101.825 13.6215 101.706 14.0057C101.086 15.9853 102.002 17.5514 104.07 18.1128C107.232 18.9696 108.207 19.7379 106.936 20.447C105.961 20.9493 104.838 20.7721 104.07 20.0038C103.066 18.9992 101.293 18.9401 101.293 19.9447C101.293 22.3381 105.282 23.6382 108.236 22.2199C111.339 20.713 110.571 17.5514 106.848 16.4581C104.838 15.8967 104.1 15.3648 104.336 14.7148C104.632 14.0057 106.493 14.0647 106.966 14.833C107.261 15.2762 107.675 15.4239 108.621 15.4239C109.891 15.4239 109.921 15.3944 109.714 14.5966C109.625 14.1534 109.211 13.4738 108.798 13.0601C108.207 12.4396 107.764 12.3214 105.932 12.2328C104.218 12.1737 103.627 12.2623 102.859 12.7351Z" fill="#5C0FFF"/>
<path d="M113.614 12.8238C111.457 14.0944 110.659 17.6696 111.96 20.3289C113.053 22.6041 116.362 23.52 118.726 22.1904C119.76 21.5994 120.794 20.2993 120.794 19.5902C120.794 18.9993 118.578 19.2061 117.987 19.8561C117.16 20.7721 115.062 20.6835 114.412 19.7084C113.466 18.2606 113.939 18.0242 117.721 18.1424L121.149 18.231L121.001 16.5468C120.824 14.6558 120.056 13.2966 118.726 12.617C117.455 11.9669 114.944 12.0556 113.614 12.8238ZM117.928 15.0399C118.962 16.0149 118.549 16.3104 116.214 16.3104C115.003 16.3104 113.998 16.2218 113.998 16.1331C113.998 16.0445 114.146 15.7195 114.323 15.3944C114.944 14.2125 116.776 14.0353 117.928 15.0399Z" fill="#5C0FFF"/>
<path d="M124.724 12.6169C123.867 12.9714 122.862 14.3306 122.862 15.1284C122.862 15.6898 125.197 15.4534 125.817 14.8329C126.763 13.8874 129.067 14.2124 129.067 15.3057C129.067 15.808 128.329 16.133 125.994 16.6058C123.01 17.2263 121.828 19.0582 123.01 21.3334C123.808 22.8994 126.91 23.254 128.506 21.9539C129.185 21.422 129.215 21.422 129.51 22.0425C129.747 22.5153 130.131 22.6926 131.224 22.7517L132.613 22.8403V21.8357C132.613 21.1857 132.436 20.7425 132.17 20.6243C131.815 20.5061 131.727 19.8856 131.727 17.7877C131.727 14.6556 131.283 13.2965 129.983 12.6464C128.89 12.0555 126.024 12.0555 124.724 12.6169ZM128.654 19.7083C128.063 20.6243 126.26 21.0084 125.61 20.3583C124.635 19.3833 125.817 18.3195 128.181 18.0241C129.097 17.9059 129.304 18.7037 128.654 19.7083Z" fill="#5C0FFF"/>
<path d="M3.7854 15.7488C3.7854 15.9261 4.05133 16.458 4.4059 16.9307C4.9673 17.7285 4.99685 17.9058 4.64228 19.265C4.22861 20.9197 4.3468 21.2151 5.97192 22.072L6.97654 22.6039L8.21754 21.5402C9.22216 20.6833 9.63583 20.506 10.3154 20.6537C10.7882 20.7424 11.3791 20.7128 11.6451 20.6242C12.0292 20.4765 11.0837 19.7673 8.09935 17.9354C5.88328 16.5466 3.99223 15.4238 3.93314 15.4238C3.8445 15.4238 3.7854 15.5716 3.7854 15.7488Z" fill="#5C0FFF"/>
<path d="M2.92864 22.1017C2.57407 22.3676 2.16041 22.8995 2.01267 23.2836C1.56945 24.4359 -0.0852122 30.8478 0.00343064 30.966C0.0625259 31.0251 1.53991 29.725 3.28322 28.0998C7.30169 24.3177 7.41988 23.6677 4.19919 21.9835C3.72643 21.7176 3.43095 21.7471 2.92864 22.1017Z" fill="#5C0FFF"/>
</svg>
